<?xml version="1.0" encoding="UTF-8" standalone="no"?>
<svg
   viewBox="0 0 899.99996 900.00002"
   version="1.1"
   id="svg104"
   sodipodi:docname="Logo_neutral_de_la_Universidad_Cristóbal_Colón.svg"
   width="900"
   height="900"
   inkscape:version="1.4.3 (0d15f75, 2025-12-25)"
   inkscape:export-filename="Logo_neutral_de_la_Universidad_Cristóbal_Colón.png"
   inkscape:export-xdpi="9.6000004"
   inkscape:export-ydpi="9.6000004"
   xmlns:inkscape="http://www.inkscape.org/namespaces/inkscape"
   xmlns:sodipodi="http://sodipodi.sourceforge.net/DTD/sodipodi-0.dtd"
   xmlns="http://www.w3.org/2000/svg"
   xmlns:svg="http://www.w3.org/2000/svg"
   xmlns:rdf="http://www.w3.org/1999/02/22-rdf-syntax-ns#"
   xmlns:cc="http://creativecommons.org/ns#"
   xmlns:dc="http://purl.org/dc/elements/1.1/">
  <sodipodi:namedview
     id="namedview106"
     pagecolor="#ffffff"
     bordercolor="#666666"
     borderopacity="1.0"
     inkscape:pageshadow="2"
     inkscape:pageopacity="0.0"
     inkscape:pagecheckerboard="0"
     showgrid="false"
     fit-margin-top="0"
     fit-margin-left="0"
     fit-margin-right="0"
     fit-margin-bottom="0"
     inkscape:zoom="0.75625677"
     inkscape:cx="414.54174"
     inkscape:cy="495.20218"
     inkscape:window-width="1920"
     inkscape:window-height="1094"
     inkscape:window-x="-11"
     inkscape:window-y="-11"
     inkscape:window-maximized="1"
     inkscape:current-layer="Capa_1-2"
     inkscape:showpageshadow="2"
     inkscape:deskcolor="#d1d1d1" />
  <defs
     id="defs4">
    <style
       id="style2">.cls-1{fill:#5a5b5e;}.cls-2{fill:#006da1;}</style>
  </defs>
  <title
     id="title6">logoUCC</title>
  <g
     id="Capa_1-2"
     data-name="Capa 1"
     transform="matrix(1.6795255,0,0,1.6795255,239.36227,281.42732)">
    <g
       id="g1"
       transform="matrix(2.0172802,0,0,2.0172802,-30.704969,-136.20411)"
       style="fill:#666666">
      <rect
         class="cls-1"
         x="24.870001"
         y="46.290001"
         width="99.07"
         height="12.43"
         id="rect8"
         style="fill:#666666" />
      <path
         class="cls-2"
         d="M 148.82,71.05 H 124 v 97.75 c 0,23.4 -13,48.4 -49.68,48.4 -36.47,0 -49.47,-25 -49.47,-48.4 V 71.05 H 0 v 3.29 l 9.28,2.89 v 91.57 c 0,39.22 25.14,63.38 65,63.38 39.86,0 65.24,-24.18 65.24,-63.38 l -0.17,-91.57 9.47,-3 z"
         id="path10"
         style="fill:#666666" />
      <path
         class="cls-2"
         d="m 123.94,32.62 a 7.67,7.67 0 1 1 -7.69,-7.62 7.67,7.67 0 0 1 7.69,7.62 z"
         id="path12"
         style="fill:#666666" />
      <path
         class="cls-2"
         d="M 40.22,32.62 A 7.67,7.67 0 1 1 32.53,25 a 7.67,7.67 0 0 1 7.69,7.62 z"
         id="path14"
         style="fill:#666666" />
      <path
         class="cls-2"
         d="M 95.82,32.62 A 7.67,7.67 0 1 1 88.13,25 a 7.68,7.68 0 0 1 7.69,7.62 z"
         id="path16"
         style="fill:#666666" />
      <path
         class="cls-2"
         d="M 68,32.62 A 7.67,7.67 0 1 1 60.35,25 7.67,7.67 0 0 1 68,32.62 Z"
         id="path18"
         style="fill:#666666" />
      <polygon
         class="cls-2"
         points="77.73,9.09 77.73,0 71.42,0 71.42,9.09 62.23,9.09 62.23,15.4 71.42,15.4 71.42,24.8 77.73,24.8 77.73,15.4 86.59,15.4 86.59,9.09 "
         id="polygon20"
         style="fill:#666666" />
      <polygon
         class="cls-1"
         points="58.35,170.55 58.35,159.13 52.72,165.88 51.92,165.88 46.32,159.13 46.32,170.55 41.71,170.55 41.71,151.89 45.7,151.89 52.34,159.68 58.98,151.89 62.96,151.89 62.96,170.55 "
         id="polygon22"
         style="fill:#666666" />
      <path
         class="cls-1"
         d="m 49.64,181.79 v 5.7 h 3.92 a 2.85,2.85 0 1 0 0,-5.7 z m -4.62,-4 h 9.28 c 3.71,0 6.89,2.17 6.89,6.92 a 6.6,6.6 0 0 1 -6.89,6.8 h -4.66 v 4.94 H 45 Z"
         id="path24"
         style="fill:#666666" />
      <polygon
         class="cls-1"
         points="99.31,196.45 94.69,196.45 94.69,189.26 87.58,177.79 92.73,177.79 97,185.01 101.29,177.79 106.41,177.79 99.31,189.24 "
         id="polygon26"
         style="fill:#666666" />
      <path
         class="cls-1"
         d="m 97,166.48 a 5.26,5.26 0 1 0 -5.08,-5.23 5,5 0 0 0 5.08,5.23 z m 0,-14.87 a 9.61,9.61 0 1 1 -9.58,9.64 9.39,9.39 0 0 1 9.58,-9.64 z"
         id="path28"
         style="fill:#666666" />
      <rect
         class="cls-1"
         x="94.57"
         y="159.61"
         width="4.8499999"
         height="3.21"
         id="rect30"
         style="fill:#666666" />
      <path
         class="cls-1"
         d="m 114.65,141.31 a 28,28 0 0 1 -6.27,-2.29 c -7.61,-3.42 -19.08,-8.36 -34,1.74 -15,-10.1 -26.21,-5.16 -33.83,-1.74 a 26.37,26.37 0 0 1 -6.36,2.31 v 6.88 c 3,-0.18 6,-1.52 9.17,-2.94 7.37,-3.3 16,-8 28,0.32 v 61.8 c 1.08,0.07 1.91,0.09 3,0.09 1,0 1.8,0 3.16,-0.12 v -61.77 c 12,-8.31 20.74,-3.62 28.1,-0.32 3.14,1.4 6.1,2.73 9.07,2.94 z"
         id="path32"
         style="fill:#666666" />
      <path
         class="cls-2"
         d="M 66.09,136.46 44.26,82.38 c -1,0.34 -4.39,1.59 -5.26,2 l 20.39,50.52 a 28.16,28.16 0 0 1 6.7,1.56 z"
         id="path34"
         style="fill:#666666" />
      <path
         class="cls-2"
         d="m 34.21,119.53 v 7.79 l 9.68,10.26 a 41.46,41.46 0 0 1 5.58,-1.89 z"
         id="path36"
         style="fill:#666666" />
      <path
         class="cls-2"
         d="m 34.21,100.73 v 4.38 L 53.32,135 c 0.87,-0.1 1.76,-0.17 2.67,-0.19 z"
         id="path38"
         style="fill:#666666" />
      <path
         class="cls-2"
         d="m 75.53,77.36 c -0.4,0 -1.9,0 -2.3,0 H 71.6 v 0 61.64 c 0.84,0.49 1.93,1.15 2.8,1.74 0.86,-0.59 2,-1.25 2.83,-1.74 V 77.39 Z"
         id="path40"
         style="fill:#666666" />
      <path
         class="cls-2"
         d="m 59,78.63 c -0.81,0.13 -1.51,0.26 -2.31,0.42 l 11.15,58.1 c 0.87,0.37 1.75,0.79 2.65,1.27 z"
         id="path42"
         style="fill:#666666" />
      <path
         class="cls-2"
         d="m 82.73,136.46 21.83,-54.08 c 1,0.34 4.38,1.59 5.26,2 L 89.43,134.9 a 28,28 0 0 0 -6.7,1.56 z"
         id="path44"
         style="fill:#666666" />
      <path
         class="cls-2"
         d="m 114.61,119.53 v 7.79 l -9.69,10.26 a 40.52,40.52 0 0 0 -5.58,-1.89 z"
         id="path46"
         style="fill:#666666" />
      <path
         class="cls-2"
         d="m 114.61,100.73 v 4.38 L 95.49,135 c -0.86,-0.1 -1.75,-0.17 -2.67,-0.19 z"
         id="path48"
         style="fill:#666666" />
      <path
         class="cls-2"
         d="m 89.81,78.63 c 0.81,0.13 1.5,0.26 2.31,0.42 L 81,137.15 c -0.86,0.37 -1.75,0.79 -2.64,1.27 z"
         id="path50"
         style="fill:#666666" />
    </g>
  </g>
  <metadata
     id="metadata923">
    <rdf:RDF>
      <cc:Work
         rdf:about="">
        <dc:title>logoUCC</dc:title>
      </cc:Work>
    </rdf:RDF>
  </metadata>
</svg>
